# xmcd
# 
# Track frame offsets:
#     150
#     16136
#     37469
#     55174
#     66696
#     115523
#     155729
#     194189
#     228954
#     259296
# 
# Disc length: 3669
# 
# Revision: 1
# Processed by: cddbd v1.5.2PL0 Copyright (c) Steve Scherf et al.
# Submitted via: fre:ac v1.0.31
# 
DISCID=960e530a
DTITLE=Jazz - All Time Greatest Jazz Ballads Disc 3
DYEAR=0
DGENRE=Jazz
TTITLE0=Body and Soul by Teddy Wilson
TTITLE1=Black and Blue by Ralph Sutton and Kenny Davern
TTITLE2=Autumn in New York by Bobby Hackett
TTITLE3=My One and Only Love by Joe Venuti and Zoot Sims
TTITLE4=Sophisticated Lady by Gene Bertoncini
TTITLE5=When I Fall in Love by Junior Mance
TTITLE6=Poor Butterfly by Tate and Ibriham
TTITLE7=But Beautiful by Clark Terry
TTITLE8=How Deep Is the Ocean by Clark Terry
TTITLE9=Blame It On My Youth by Howard Allen and Jack Lesbure
EXTD=
EXTT0=
EXTT1=
EXTT2=
EXTT3=
EXTT4=
EXTT5=
EXTT6=
EXTT7=
EXTT8=
EXTT9=
PLAYORDER=
